<svg width="45" height="45" viewBox="0 0 45 45" fill="none" xmlns="http://www.w3.org/2000/svg">
<rect width="45" height="45" rx="22.5" fill="#F97316" fill-opacity="0.2"/>
<path fill-rule="evenodd" clip-rule="evenodd" d="M21.7067 12.9155C21.0671 13.0001 20.2773 13.1815 19.1537 13.4408L17.8743 13.736C16.9254 13.955 16.2718 14.1068 15.7727 14.2781C15.2908 14.4435 15.0182 14.6066 14.8124 14.8123C14.6067 15.018 14.4437 15.2907 14.2783 15.7726C14.1069 16.2717 13.9551 16.9253 13.7361 17.8742L13.4409 19.1536C13.1816 20.2771 13.0002 21.067 12.9157 21.7066C12.8333 22.3297 12.8523 22.7514 12.9622 23.1346C13.0721 23.5179 13.2795 23.8855 13.6796 24.3703C14.0903 24.8679 14.6627 25.4415 15.4781 26.2569L17.384 28.1627C18.8001 29.5789 19.8078 30.5842 20.6741 31.2452C21.5224 31.8925 22.1427 32.1355 22.7734 32.1355C23.4041 32.1355 24.0244 31.8925 24.8727 31.2452C25.739 30.5842 26.7467 29.5789 28.1629 28.1627C29.579 26.7466 30.5843 25.7389 31.2453 24.8726C31.8926 24.0243 32.1356 23.404 32.1356 22.7733C32.1356 22.1426 31.8926 21.5223 31.2453 20.674C30.5843 19.8077 29.579 18.8 28.1629 17.3838L26.257 15.478C25.4416 14.6626 24.868 14.0902 24.3704 13.6795C23.8856 13.2794 23.518 13.072 23.1348 12.9621C22.7515 12.8522 22.3299 12.8332 21.7067 12.9155ZM21.502 11.3665C22.2492 11.2678 22.9044 11.2705 23.5655 11.4601C24.2266 11.6498 24.7837 11.9946 25.365 12.4744C25.9269 12.9382 26.5527 13.564 27.3345 14.3458L29.3093 16.3206C30.6746 17.6858 31.7555 18.7667 32.4876 19.7262C33.2408 20.7135 33.6981 21.6636 33.6981 22.7733C33.6981 23.883 33.2408 24.8331 32.4876 25.8204C31.7555 26.7799 30.6746 27.8608 29.3093 29.226L29.2261 29.3092C27.8609 30.6744 26.78 31.7553 25.8205 32.4874C24.8332 33.2407 23.8831 33.698 22.7734 33.698C21.6638 33.698 20.7136 33.2407 19.7263 32.4874C18.7668 31.7553 17.6859 30.6744 16.3207 29.3092L14.3459 27.3344C13.5641 26.5526 12.9383 25.9268 12.4745 25.3649C11.9948 24.7836 11.6499 24.2265 11.4603 23.5654C11.2707 22.9043 11.2679 22.2491 11.3666 21.5019C11.4621 20.7796 11.6611 19.9172 11.9097 18.8399L12.2229 17.4827C12.4304 16.5836 12.5996 15.8505 12.8004 15.2653C13.0101 14.6543 13.2743 14.1408 13.7076 13.7075C14.1409 13.2741 14.6544 13.01 15.2655 12.8003C15.8506 12.5994 16.5837 12.4303 17.4828 12.2228L18.84 11.9096C19.9173 11.661 20.7797 11.462 21.502 11.3665ZM19.8865 18.3284C19.378 17.8199 18.5536 17.8199 18.0451 18.3284C17.5366 18.8369 17.5366 19.6613 18.0451 20.1698C18.5536 20.6783 19.378 20.6783 19.8865 20.1698C20.395 19.6613 20.395 18.8369 19.8865 18.3284ZM16.9403 17.2235C18.0589 16.1049 19.8727 16.1049 20.9914 17.2235C22.1101 18.3422 22.1101 20.156 20.9914 21.2747C19.8727 22.3934 18.0589 22.3934 16.9403 21.2747C15.8216 20.156 15.8216 18.3422 16.9403 17.2235ZM23.5344 22.6115C23.3502 22.6097 23.108 22.6924 22.9002 22.9001C22.4966 23.3038 22.6027 23.7075 22.7161 23.8208C22.8295 23.9342 23.2331 24.0404 23.6368 23.6367C24.4535 22.82 25.8636 22.5489 26.7672 23.4526C27.4682 24.1536 27.4623 25.1594 27.0431 25.9565C27.2526 26.2608 27.222 26.6806 26.9514 26.9513C26.6817 27.221 26.2638 27.2522 25.9597 27.0451C25.4838 27.298 24.9424 27.3928 24.4262 27.2867C24.0036 27.1999 23.7314 26.7869 23.8182 26.3642C23.9051 25.9416 24.3181 25.6694 24.7407 25.7562C24.9253 25.7941 25.2228 25.7336 25.4782 25.4781C25.8819 25.0744 25.7758 24.6708 25.6624 24.5574C25.549 24.444 25.1454 24.3379 24.7417 24.7415C23.925 25.5583 22.5149 25.8293 21.6113 24.9257C20.9102 24.2247 20.9162 23.2189 21.3354 22.4218C21.1259 22.1174 21.1565 21.6976 21.4271 21.427C21.6968 21.1573 22.1145 21.126 22.4185 21.333C22.7726 21.1449 23.1616 21.0454 23.5492 21.049C23.9806 21.0531 24.3271 21.4061 24.323 21.8376C24.3189 22.2691 23.9659 22.6155 23.5344 22.6115Z" fill="#F97316"/>
</svg>
